<svg width="50" height="50" viewBox="0 0 50 50" fill="none" xmlns="http://www.w3.org/2000/svg">
<g id="Icons/browser">
<g id="surface1">
<path id="Vector" d="M22.0703 25H23.5352V23.5352C23.5352 22.7268 22.8786 22.0703 22.0703 22.0703C21.262 22.0703 20.6055 22.7268 20.6055 23.5352C20.6055 24.3435 21.262 25 22.0703 25Z" fill="white"/>
<path id="Vector_2" d="M23.5352 27.9297C23.2403 27.9297 18.8457 27.9297 19.1406 27.9297C18.3323 27.9297 17.6758 28.5862 17.6758 29.3945V30.8594H23.5352V27.9297Z" fill="white"/>
<path id="Vector_3" d="M29.3945 23.5352C29.3945 22.7268 28.738 22.0703 27.9297 22.0703C27.1214 22.0703 26.4648 22.7268 26.4648 23.5352V25H27.9297C28.738 25 29.3945 24.3435 29.3945 23.5352Z" fill="white"/>
<path id="Vector_4" d="M23.5352 33.7891H20.6055V39.6484H29.3945V33.7891H26.4648V35.2539C26.4648 36.0634 25.8095 36.7188 25 36.7188C24.1905 36.7188 23.5352 36.0634 23.5352 35.2539V33.7891Z" fill="white"/>
<path id="Vector_5" d="M0 44.043C0 46.4661 1.97144 48.4375 4.39453 48.4375H45.6055C48.0286 48.4375 50 46.4661 50 44.043V16.2109H0V44.043ZM14.7461 29.3945C14.7461 27.3689 16.1308 25.676 17.9985 25.1694C17.7944 24.6632 17.6758 24.1135 17.6758 23.5352C17.6758 21.1121 19.6472 19.1406 22.0703 19.1406C23.1998 19.1406 24.2207 19.5808 25 20.2835C25.7793 19.5808 26.8002 19.1406 27.9297 19.1406C30.3528 19.1406 32.3242 21.1121 32.3242 23.5352C32.3242 24.1135 32.2056 24.6632 32.0015 25.1694C33.8692 25.676 35.2539 27.3689 35.2539 29.3945V32.3242C35.2539 33.1337 34.5985 33.7891 33.7891 33.7891H32.3242V41.1133C32.3242 41.9228 31.6689 42.5781 30.8594 42.5781H19.1406C18.3311 42.5781 17.6758 41.9228 17.6758 41.1133V33.7891H16.2109C15.4015 33.7891 14.7461 33.1337 14.7461 32.3242V29.3945Z" fill="white"/>
<path id="Vector_6" d="M32.3243 29.3945C32.3243 28.5862 31.6677 27.9297 30.8594 27.9297C30.5645 27.9297 26.17 27.9297 26.4649 27.9297V30.8594H32.3243V29.3945Z" fill="white"/>
<path id="Vector_7" d="M45.6055 1.5625H4.39453C1.97144 1.5625 0 3.53394 0 5.95703V13.2812H50V5.95703C50 3.53394 48.0286 1.5625 45.6055 1.5625ZM7.32155 10.3516C6.51245 10.3516 5.8567 9.69582 5.8567 8.88672C5.8567 8.07762 6.51245 7.42188 7.32155 7.42188C8.13065 7.42188 8.78639 8.07762 8.78639 8.88672C8.78639 9.69582 8.13065 10.3516 7.32155 10.3516ZM13.2786 10.3516C12.4695 10.3516 11.8137 9.69582 11.8137 8.88672C11.8137 8.07762 12.4695 7.42188 13.2786 7.42188C14.0877 7.42188 14.7434 8.07762 14.7434 8.88672C14.7434 9.69582 14.0877 10.3516 13.2786 10.3516ZM19.138 10.3516C18.3289 10.3516 17.6731 9.69582 17.6731 8.88672C17.6731 8.07762 18.3289 7.42188 19.138 7.42188C19.9471 7.42188 20.6028 8.07762 20.6028 8.88672C20.6028 9.69582 19.9471 10.3516 19.138 10.3516ZM42.6758 10.3516H33.7891C32.9796 10.3516 32.3242 9.6962 32.3242 8.88672C32.3242 8.07724 32.9796 7.42188 33.7891 7.42188H42.6758C43.4853 7.42188 44.1406 8.07724 44.1406 8.88672C44.1406 9.6962 43.4853 10.3516 42.6758 10.3516Z" fill="white"/>
</g>
</g>
</svg>
