<svg width="50" height="50" viewBox="0 0 50 50" fill="none" xmlns="http://www.w3.org/2000/svg">
<circle cx="25" cy="25" r="25" fill="#5956E9"/>
<g clip-path="url(#clip0_152_715)">
<path d="M32.5 28.6833V31.63C32.5001 31.841 32.4202 32.0441 32.2763 32.1985C32.1325 32.3528 31.9355 32.4469 31.725 32.4617C31.3608 32.4867 31.0633 32.5 30.8333 32.5C23.4692 32.5 17.5 26.5308 17.5 19.1667C17.5 18.9367 17.5125 18.6392 17.5383 18.275C17.5531 18.0645 17.6472 17.8675 17.8015 17.7237C17.9559 17.5798 18.159 17.4999 18.37 17.5H21.3167C21.42 17.4999 21.5197 17.5382 21.5964 17.6075C21.6731 17.6768 21.7213 17.7722 21.7317 17.875C21.7508 18.0667 21.7683 18.2192 21.785 18.335C21.9506 19.4908 22.29 20.6149 22.7917 21.6692C22.8708 21.8358 22.8192 22.035 22.6692 22.1417L20.8708 23.4267C21.9704 25.9887 24.0121 28.0305 26.5742 29.13L27.8575 27.335C27.91 27.2617 27.9865 27.2091 28.0737 27.1864C28.161 27.1637 28.2535 27.1723 28.335 27.2108C29.3892 27.7116 30.513 28.0501 31.6683 28.215C31.7842 28.2317 31.9367 28.25 32.1267 28.2683C32.2294 28.2789 32.3245 28.3271 32.3936 28.4038C32.4628 28.4805 32.501 28.5801 32.5008 28.6833H32.5Z" fill="white"/>
</g>
<defs>
<clipPath id="clip0_152_715">
<rect width="20" height="20" fill="white" transform="translate(15 15)"/>
</clipPath>
</defs>
</svg>
