<svg width="50" height="50" viewBox="0 0 50 50" fill="none" xmlns="http://www.w3.org/2000/svg">
<g id="Icons/male-telemarketer" clip-path="url(#clip0_633_441)">
<g id="Group">
<path id="Vector" d="M15.3751 22.2756C17.6647 27.3285 22.5668 29.528 24.9999 29.528C26.5998 29.528 29.267 28.5763 31.5572 26.4887C30.7198 26.5471 29.8248 26.5767 28.8684 26.5767C28.644 26.5767 28.4085 26.5747 28.1569 26.5707C27.6748 26.942 27.0776 27.1514 26.4578 27.1514H24.42C22.8843 27.1514 21.635 25.9021 21.635 24.3664C21.635 22.8307 22.8843 21.5813 24.42 21.5813H26.4578C27.194 21.5813 27.8825 21.8683 28.3932 22.3632C28.5628 22.3651 28.7301 22.3659 28.8942 22.3659C31.5249 22.3659 33.2585 22.1246 34.3926 21.8336C34.2455 21.4756 34.1653 21.084 34.1653 20.6751V13.6137C34.1653 12.8792 34.438 12.1751 34.9094 11.6311C34.6578 9.67275 34.2012 8.17767 33.5198 7.0748C32.1156 4.80209 29.4083 3.74365 24.9999 3.74365C21.3429 3.74365 18.8175 4.50281 17.2796 6.06445C16.0875 7.27505 15.3967 9.00244 15.0737 11.6113C15.5557 12.1573 15.8345 12.8686 15.8345 13.6137V20.6751C15.8347 21.2626 15.6658 21.8109 15.3751 22.2756Z" fill="white"/>
<path id="Vector_2" d="M10.3646 22.3422H12.8092C13.7294 22.3422 14.4761 21.5958 14.4761 20.6751V13.6138C14.4761 12.9987 14.142 12.4627 13.6464 12.1739C14.1923 6.39182 16.4236 2.38506 25.0001 2.38506C29.9252 2.38506 32.9997 3.64851 34.6756 6.36084C35.6508 7.9392 36.1199 9.97783 36.339 12.1826C35.8513 12.4735 35.5239 13.0047 35.5239 13.6137V20.675C35.5239 21.4688 36.0793 22.1316 36.8222 22.2997C35.7446 23.0045 33.5136 23.7244 28.8942 23.7244C28.52 23.7244 28.13 23.7196 27.7238 23.7099C27.4861 23.2527 27.0089 22.9398 26.4579 22.9398H24.4202C23.6325 22.9398 22.9938 23.5785 22.9938 24.3663C22.9938 25.1541 23.6325 25.7928 24.4202 25.7928H26.4579C26.9339 25.7928 27.3545 25.5587 27.6135 25.2005C28.0425 25.2113 28.4626 25.2181 28.8685 25.2181C34.0755 25.218 37.3856 24.3292 38.7262 22.5658C38.7833 22.4908 38.8353 22.4161 38.8828 22.3422H39.6358C40.5562 22.3422 41.3027 21.5958 41.3027 20.6751V13.6138C41.3027 12.6933 40.5563 11.9469 39.6358 11.9469H38.7163C38.4577 9.28307 37.8842 7.01539 36.7047 5.1069C34.5816 1.67047 30.7527 0 24.9999 0C19.2468 0 15.4182 1.67047 13.295 5.10704C12.1156 7.01552 11.5425 9.28293 11.2836 11.947H10.3645C9.44377 11.947 8.69739 12.6933 8.69739 13.614V20.6753C8.69739 21.5958 9.44391 22.3422 10.3646 22.3422Z" fill="white"/>
<path id="Vector_3" d="M45.1537 43.1066C44.5994 39.6604 43.4583 35.2212 41.1699 33.6439C39.6095 32.5678 34.1617 29.6571 31.8355 28.4143L31.7865 28.3883C31.5203 28.246 31.1954 28.2746 30.9581 28.4608C29.7377 29.4187 28.4017 30.064 26.9874 30.3788C26.7374 30.4344 26.5321 30.6122 26.4412 30.8516L24.9999 34.6502L23.5587 30.8516C23.4678 30.6121 23.2625 30.4344 23.0125 30.3788C21.5981 30.064 20.2619 29.4187 19.0414 28.4608C18.8042 28.2744 18.4792 28.2459 18.2131 28.3883C15.9128 29.6172 10.3945 32.589 8.83652 33.6393C6.20108 35.4148 5.05013 41.8373 4.84621 43.1067C4.82597 43.2327 4.83765 43.3615 4.88017 43.4816C4.97446 43.7478 7.39185 50.0003 24.9998 50.0003C42.6075 50.0003 45.0252 43.7478 45.1196 43.4817C45.1622 43.3613 45.1739 43.2324 45.1537 43.1066ZM36.9551 39.1492H29.9812V37.6804H36.9551V39.1492Z" fill="white"/>
</g>
</g>
<defs>
<clipPath id="clip0_633_441">
<rect width="50" height="50" fill="white"/>
</clipPath>
</defs>
</svg>
