<svg width="18" height="18" viewBox="0 0 18 18" fill="none" xmlns="http://www.w3.org/2000/svg">
<g id="Icons/twitter-fill" clip-path="url(#clip0_633_467)">
<g id="Group">
<path id="Vector" d="M16.6215 4.24201C16.0489 4.49528 15.4417 4.66161 14.82 4.73551C15.4753 4.34358 15.9658 3.72677 16.2 3.00001C15.585 3.36601 14.9107 3.62251 14.208 3.76126C13.7359 3.25619 13.1102 2.92123 12.4282 2.80844C11.7461 2.69566 11.0459 2.81137 10.4364 3.1376C9.82692 3.46382 9.34227 3.98227 9.05781 4.61235C8.77336 5.24243 8.70504 5.94884 8.86348 6.62176C7.61631 6.55925 6.39623 6.23515 5.28244 5.6705C4.16866 5.10586 3.18607 4.31329 2.39848 3.34426C2.1197 3.82309 1.97319 4.36743 1.97398 4.92151C1.97398 6.00901 2.52748 6.96976 3.36898 7.53226C2.87099 7.51658 2.38395 7.38209 1.94848 7.14001V7.17901C1.94863 7.90328 2.19926 8.60522 2.65786 9.1658C3.11647 9.72638 3.75484 10.1111 4.46473 10.2548C4.00244 10.38 3.51771 10.3985 3.04723 10.3088C3.24738 10.9322 3.63748 11.4774 4.16292 11.8681C4.68836 12.2588 5.32282 12.4754 5.97748 12.4875C5.32684 12.9985 4.58186 13.3762 3.78514 13.5991C2.98842 13.822 2.15557 13.8857 1.33423 13.7865C2.768 14.7086 4.43705 15.1981 6.14173 15.1965C11.9115 15.1965 15.0667 10.4168 15.0667 6.27151C15.0667 6.13651 15.063 6.00001 15.057 5.86651C15.6711 5.42263 16.2012 4.87277 16.6222 4.24276L16.6215 4.24201Z" fill="white"/>
</g>
</g>
<defs>
<clipPath id="clip0_633_467">
<rect width="18" height="18" fill="white"/>
</clipPath>
</defs>
</svg>
