<svg width="50" height="50" viewBox="0 0 50 50" fill="none" xmlns="http://www.w3.org/2000/svg">
<g id="Icons/vector" clip-path="url(#clip0_633_582)">
<g id="Group">
<g id="Group_2">
<path id="Vector" d="M48.5352 0H42.5781C41.7685 0 41.1133 0.655176 41.1133 1.46484V2.92969H29.1247C28.518 1.22832 26.9072 0 25 0C23.0928 0 21.482 1.22832 20.8753 2.92969H8.88672V1.46484C8.88672 0.655176 8.23154 0 7.42188 0H1.46484C0.655176 0 0 0.655176 0 1.46484V7.32422C0 8.13389 0.655176 8.78906 1.46484 8.78906H7.42188C8.23154 8.78906 8.88672 8.13389 8.88672 7.32422V5.83984H14.9027C9.81904 9.01572 6.46699 14.5937 6.06631 20.8413C4.30869 21.4166 3.02734 23.0527 3.02734 25C3.02734 27.4232 4.99863 29.3945 7.42188 29.3945C9.84512 29.3945 11.8164 27.4232 11.8164 25C11.8164 23.1309 10.6386 21.5417 8.99023 20.9075C9.49004 13.9422 14.3502 8.07148 21.1106 6.39648C21.8418 7.81025 23.3015 8.78906 25 8.78906C26.6985 8.78906 28.1582 7.81025 28.8894 6.39648C35.6498 8.07139 40.51 13.9421 41.0098 20.9074C39.3614 21.5417 38.1836 23.1309 38.1836 25C38.1836 27.4232 40.1549 29.3945 42.5781 29.3945C45.0014 29.3945 46.9727 27.4232 46.9727 25C46.9727 23.0527 45.6913 21.4166 43.9337 20.8413C43.533 14.5937 40.181 9.03525 35.0973 5.85938H41.1133V7.32422C41.1133 8.13389 41.7685 8.78906 42.5781 8.78906H48.5352C49.3448 8.78906 50 8.13389 50 7.32422V1.46484C50 0.655176 49.3448 0 48.5352 0Z" fill="white"/>
</g>
</g>
<g id="Group_3">
<g id="Group_4">
<path id="Vector_2" d="M34.9658 48.1831C34.1996 45.8385 31.9922 44.043 29.3945 44.043H20.6055C18.0078 44.043 15.8004 45.8385 15.0342 48.1831C14.7388 49.0871 15.5078 50 16.459 50H33.541C34.4921 50 35.2612 49.0871 34.9658 48.1831Z" fill="white"/>
</g>
</g>
<g id="Group_5">
<g id="Group_6">
<path id="Vector_3" d="M37.9375 30.047L26.4649 12.8379V26.7348C28.1662 27.3415 29.3945 28.9522 29.3945 30.8595C29.3945 33.2827 27.4233 35.254 25 35.254C22.5768 35.254 20.6055 33.2827 20.6055 30.8595C20.6055 28.9522 21.8338 27.3415 23.5352 26.7348V12.8379L12.0625 30.047C11.6748 30.6277 11.7521 31.4017 12.2456 31.8952C14.9348 34.5844 16.6537 38.0487 17.3171 41.7648C18.3347 41.3521 19.4414 41.1134 20.6055 41.1134H29.3945C30.5586 41.1134 31.6653 41.352 32.6829 41.7647C33.3463 38.0483 35.0652 34.5844 37.7544 31.8952C38.248 31.4017 38.3252 30.6277 37.9375 30.047Z" fill="white"/>
</g>
</g>
<g id="Group_7">
<g id="Group_8">
<path id="Vector_4" d="M25 29.3945C24.1918 29.3945 23.5352 30.0512 23.5352 30.8594C23.5352 31.6676 24.1918 32.3242 25 32.3242C25.8082 32.3242 26.4648 31.6676 26.4648 30.8594C26.4648 30.0512 25.8082 29.3945 25 29.3945Z" fill="white"/>
</g>
</g>
</g>
<defs>
<clipPath id="clip0_633_582">
<rect width="50" height="50" fill="white"/>
</clipPath>
</defs>
</svg>
