<svg width="70" height="70" viewBox="0 0 70 70" fill="none" xmlns="http://www.w3.org/2000/svg">
<circle cx="35" cy="35" r="35" fill="white" fill-opacity="0.6"/>
<circle cx="35" cy="35" r="30" fill="white" fill-opacity="0.7"/>
<circle cx="35" cy="35" r="25" fill="white"/>
<g clip-path="url(#clip0_152_277)">
<path d="M26 26.993C26 26.445 26.445 26 26.993 26H43.007C43.555 26 44 26.445 44 26.993V43.007C43.9997 43.2703 43.895 43.5227 43.7089 43.7089C43.5227 43.895 43.2703 43.9997 43.007 44H26.993C26.7297 43.9997 26.4773 43.895 26.2911 43.7089C26.105 43.5227 26.0003 43.2703 26 43.007V26.993ZM33.622 31.415C33.5618 31.3748 33.4919 31.3518 33.4196 31.3482C33.3473 31.3447 33.2755 31.3608 33.2116 31.3949C33.1478 31.4289 33.0944 31.4797 33.0572 31.5417C33.0199 31.6037 33.0001 31.6747 33 31.747V38.253C33.0001 38.3253 33.0199 38.3963 33.0572 38.4583C33.0944 38.5203 33.1478 38.5711 33.2116 38.6051C33.2755 38.6392 33.3473 38.6553 33.4196 38.6518C33.4919 38.6482 33.5618 38.6252 33.622 38.585L38.501 35.333C38.5559 35.2965 38.6009 35.247 38.632 35.1889C38.6631 35.1308 38.6794 35.0659 38.6794 35C38.6794 34.9341 38.6631 34.8692 38.632 34.8111C38.6009 34.753 38.5559 34.7035 38.501 34.667L33.621 31.415H33.622Z" fill="#5956E9"/>
</g>
<defs>
<clipPath id="clip0_152_277">
<rect width="24" height="24" fill="white" transform="translate(23 23)"/>
</clipPath>
</defs>
</svg>
