<svg width="18" height="18" viewBox="0 0 18 18" fill="none" xmlns="http://www.w3.org/2000/svg">
<g id="Icons/youtube-fill" clip-path="url(#clip0_633_285)">
<g id="Group">
<path id="Vector" d="M16.1572 4.8735C16.5 6.21 16.5 9 16.5 9C16.5 9 16.5 11.79 16.1572 13.1265C15.9667 13.8653 15.4095 14.4465 14.7037 14.643C13.422 15 9 15 9 15C9 15 4.58025 15 3.29625 14.643C2.5875 14.4435 2.031 13.863 1.84275 13.1265C1.5 11.79 1.5 9 1.5 9C1.5 9 1.5 6.21 1.84275 4.8735C2.03325 4.13475 2.5905 3.5535 3.29625 3.357C4.58025 3 9 3 9 3C9 3 13.422 3 14.7037 3.357C15.4125 3.5565 15.969 4.137 16.1572 4.8735ZM7.5 11.625L12 9L7.5 6.375V11.625Z" fill="white"/>
</g>
</g>
<defs>
<clipPath id="clip0_633_285">
<rect width="18" height="18" fill="white"/>
</clipPath>
</defs>
</svg>
