<svg width="28" height="28" viewBox="0 0 28 28" fill="none" xmlns="http://www.w3.org/2000/svg">
<g id="Button 01">
<circle id="Ellipse 2" cx="14" cy="14" r="13.5" fill="white" stroke="#E7E7E9"/>
<path id="Icon color" d="M12.0784 9.96061C12.0282 9.91368 12 9.84979 12 9.78314C12 9.71649 12.0282 9.6526 12.0784 9.60567L12.6403 9.07575C12.6884 9.02742 12.7556 9 12.8259 9C12.8962 9 12.9633 9.02742 13.0114 9.07575L17.8834 13.6701C17.958 13.7403 17.9999 13.8356 18 13.935V14.065C17.9999 14.1644 17.958 14.2597 17.8834 14.33L13.0114 18.9243C12.9633 18.9726 12.8962 19 12.8259 19C12.7556 19 12.6884 18.9726 12.6403 18.9243L12.0784 18.3943C12.0282 18.3474 12 18.2835 12 18.2169C12 18.1502 12.0282 18.0863 12.0784 18.0394L16.3619 14L12.0784 9.96061Z" fill="#898989"/>
</g>
</svg>
