<svg width="4" height="8" viewBox="0 0 4 8" fill="none" xmlns="http://www.w3.org/2000/svg">
<g id="Group 8">
<path id="Icon color" d="M3.94773 7.23127C3.98118 7.26881 4 7.31992 4 7.37324C4 7.42656 3.98118 7.47767 3.94773 7.51522L3.5731 7.93916C3.54103 7.97782 3.49626 7.99976 3.4494 7.99976C3.40254 7.99976 3.35777 7.97782 3.32571 7.93916L0.0777532 4.26372C0.0280293 4.20752 6.22055e-05 4.13127 3.45146e-07 4.05175L3.54236e-07 3.94776C6.22285e-05 3.86824 0.0280293 3.79199 0.0777532 3.7358L3.32571 0.0603542C3.35777 0.0216892 3.40255 -0.000244193 3.4494 -0.000244189C3.49626 -0.000244185 3.54103 0.0216892 3.5731 0.0603542L3.94773 0.48429C3.98118 0.521837 4 0.572949 4 0.626268C4 0.679588 3.98118 0.730699 3.94773 0.768247L1.09208 3.99976L3.94773 7.23127Z" fill="#898989"/>
</g>
</svg>
