<svg width="22" height="17" viewBox="0 0 22 17" fill="none" xmlns="http://www.w3.org/2000/svg">
<g id="Menu">
<g id="Menu 1">
<path id="Vector" d="M20.371 2.87494L1.63042 2.87494C1.28557 2.87494 1.00576 2.45491 1.00578 1.93747C1.00581 1.41995 1.28571 1 1.6305 1L20.3711 1C20.716 1 20.9958 1.42003 20.9957 1.93747C20.9957 2.45491 20.7158 2.87494 20.371 2.87494Z" fill="#303030" stroke="white" stroke-width="0.2"/>
<path id="Vector_2" d="M1.63038 7.5625L20.371 7.5625C20.7158 7.5625 20.9956 7.98253 20.9956 8.49997C20.9956 9.0174 20.7157 9.43743 20.3709 9.43743L1.6303 9.43743C1.28546 9.43743 1.00564 9.0174 1.00567 8.49997C1.00569 7.98253 1.28554 7.5625 1.63038 7.5625Z" fill="#303030" stroke="white" stroke-width="0.2"/>
<path id="Vector_3" d="M1.63075 14.125L14.1243 14.125C14.4691 14.125 14.7488 14.545 14.7486 15.0625C14.7484 15.58 14.4684 15.9999 14.1236 15.9999L1.63005 15.9999C1.28522 15.9999 1.00555 15.5799 1.00574 15.0625C1.00588 14.545 1.28591 14.125 1.63075 14.125Z" fill="#303030" stroke="white" stroke-width="0.2"/>
</g>
</g>
</svg>
