<svg width="4" height="8" viewBox="0 0 4 8" fill="none" xmlns="http://www.w3.org/2000/svg">
<g id="Group 7">
<path id="Icon color" d="M0.0522709 0.768491C0.0188172 0.730943 0 0.679832 0 0.626512C0 0.573193 0.0188172 0.522081 0.0522709 0.484534L0.426899 0.0605983C0.458966 0.0219332 0.503738 0 0.550597 0C0.597455 0 0.642227 0.0219332 0.674294 0.0605983L3.92225 3.73604C3.97197 3.79224 3.99994 3.86848 4 3.94801V4.05199C3.99994 4.13152 3.97197 4.20776 3.92225 4.26396L0.674294 7.9394C0.642227 7.97807 0.597455 8 0.550597 8C0.503738 8 0.458966 7.97807 0.426899 7.9394L0.0522709 7.51547C0.0188172 7.47792 0 7.42681 0 7.37349C0 7.32017 0.0188172 7.26906 0.0522709 7.23151L2.90792 4L0.0522709 0.768491Z" fill="#898989"/>
</g>
</svg>
