<svg width="32" height="32" viewBox="0 0 32 32" fill="none" xmlns="http://www.w3.org/2000/svg">
<g id="vuesax/linear/align-vertically">
<g id="vuesax/linear/align-vertically_2">
<g id="align-vertically">
<path id="Vector" d="M23.2 25.6666H8.8C6.8 25.6666 6 24.8133 6 22.6933V21.3066C6 19.1866 6.8 18.3333 8.8 18.3333H23.2C25.2 18.3333 26 19.1866 26 21.3066V22.6933C26 24.8133 25.2 25.6666 23.2 25.6666Z" stroke="#FEDC5A" stroke-width="2" stroke-linecap="round" stroke-linejoin="round"/>
<path id="Vector_2" d="M20.5333 14.3333H11.4666C9.46663 14.3333 8.66663 13.48 8.66663 11.36V9.97333C8.66663 7.85333 9.46663 7 11.4666 7H20.5333C22.5333 7 23.3333 7.85333 23.3333 9.97333V11.36C23.3333 13.48 22.5333 14.3333 20.5333 14.3333Z" stroke="#FEDC5A" stroke-width="2" stroke-linecap="round" stroke-linejoin="round"/>
<path id="Vector_3" d="M16 29.3334V26.1334" stroke="#FEDC5A" stroke-width="2" stroke-linecap="round" stroke-linejoin="round"/>
<path id="Vector_4" d="M16 17.3334V14.6667" stroke="#FEDC5A" stroke-width="2" stroke-linecap="round" stroke-linejoin="round"/>
<path id="Vector_5" d="M16 2.66669V6.25335" stroke="#FEDC5A" stroke-width="2" stroke-linecap="round" stroke-linejoin="round"/>
</g>
</g>
</g>
</svg>
