<svg width="32" height="32" viewBox="0 0 32 32" fill="none" xmlns="http://www.w3.org/2000/svg">
<g id="vuesax/linear/code">
<g id="vuesax/linear/code_2">
<g id="code">
<path id="Vector" d="M12 17.3333C11.12 17.7733 10.3867 18.4267 9.83999 19.24C9.53332 19.7067 9.53332 20.2933 9.83999 20.76C10.3867 21.5733 11.12 22.2267 12 22.6667" stroke="#5454D4" stroke-width="2" stroke-linecap="round" stroke-linejoin="round"/>
<path id="Vector_2" d="M20.2799 17.3333C21.1599 17.7733 21.8932 18.4267 22.4399 19.24C22.7466 19.7067 22.7466 20.2933 22.4399 20.76C21.8932 21.5733 21.1599 22.2267 20.2799 22.6667" stroke="#5454D4" stroke-width="2" stroke-linecap="round" stroke-linejoin="round"/>
<path id="Vector_3" d="M12 29.3333H20C26.6666 29.3333 29.3333 26.6667 29.3333 20V12C29.3333 5.33332 26.6666 2.66666 20 2.66666H12C5.33329 2.66666 2.66663 5.33332 2.66663 12V20C2.66663 26.6667 5.33329 29.3333 12 29.3333Z" stroke="#5454D4" stroke-width="2" stroke-linecap="round" stroke-linejoin="round"/>
<path id="Vector_4" d="M2.97327 10.68L28.5999 10.6667" stroke="#5454D4" stroke-width="2" stroke-linecap="round" stroke-linejoin="round"/>
</g>
</g>
</g>
</svg>
