<svg width="69" height="69" viewBox="0 0 69 69" fill="none" xmlns="http://www.w3.org/2000/svg">
<path fill-rule="evenodd" clip-rule="evenodd" d="M34.5 69C53.5538 69 69 53.5538 69 34.5C69 15.4462 53.5538 0 34.5 0C15.4462 0 0 15.4462 0 34.5C0 53.5538 15.4462 69 34.5 69Z" fill="#FEDC5A" fill-opacity="0.1"/>
<path d="M31 36.3333C30.12 36.7733 29.3867 37.4267 28.84 38.24C28.5333 38.7067 28.5333 39.2933 28.84 39.76C29.3867 40.5733 30.12 41.2267 31 41.6667" stroke="#FEDC5A" stroke-width="2" stroke-linecap="round" stroke-linejoin="round"/>
<path d="M39.2799 36.3333C40.1599 36.7733 40.8932 37.4267 41.4399 38.24C41.7466 38.7067 41.7466 39.2933 41.4399 39.76C40.8932 40.5733 40.1599 41.2267 39.2799 41.6667" stroke="#FEDC5A" stroke-width="2" stroke-linecap="round" stroke-linejoin="round"/>
<path d="M31 48.3333H39C45.6666 48.3333 48.3333 45.6667 48.3333 39V31C48.3333 24.3333 45.6666 21.6667 39 21.6667H31C24.3333 21.6667 21.6666 24.3333 21.6666 31V39C21.6666 45.6667 24.3333 48.3333 31 48.3333Z" stroke="#FEDC5A" stroke-width="2" stroke-linecap="round" stroke-linejoin="round"/>
<path d="M21.9733 29.68L47.5999 29.6667" stroke="#FEDC5A" stroke-width="2" stroke-linecap="round" stroke-linejoin="round"/>
</svg>
