<svg width="32" height="32" viewBox="0 0 32 32" fill="none" xmlns="http://www.w3.org/2000/svg">
<g id="vuesax/linear/layer">
<g id="vuesax/linear/layer_2">
<g id="layer">
<path id="Vector" d="M17.3467 3.89334L25.2134 7.38667C27.4801 8.38668 27.4801 10.04 25.2134 11.04L17.3467 14.5333C16.4534 14.9333 14.9867 14.9333 14.0934 14.5333L6.22673 11.04C3.96007 10.04 3.96007 8.38668 6.22673 7.38667L14.0934 3.89334C14.9867 3.49334 16.4534 3.49334 17.3467 3.89334Z" stroke="#F04037" stroke-width="2" stroke-linecap="round" stroke-linejoin="round"/>
<path id="Vector_2" d="M4 14.6667C4 15.7867 4.84 17.08 5.86667 17.5333L14.92 21.56C15.6133 21.8667 16.4 21.8667 17.08 21.56L26.1333 17.5333C27.16 17.08 28 15.7867 28 14.6667" stroke="#F04037" stroke-width="2" stroke-linecap="round" stroke-linejoin="round"/>
<path id="Vector_3" d="M4 21.3333C4 22.5733 4.73333 23.6933 5.86667 24.2L14.92 28.2267C15.6133 28.5333 16.4 28.5333 17.08 28.2267L26.1333 24.2C27.2667 23.6933 28 22.5733 28 21.3333" stroke="#F04037" stroke-width="2" stroke-linecap="round" stroke-linejoin="round"/>
</g>
</g>
</g>
</svg>
