<svg width="40" height="40" viewBox="0 0 40 40" fill="none" xmlns="http://www.w3.org/2000/svg">
<g id="Play">
<path id="Oval" fill-rule="evenodd" clip-rule="evenodd" d="M20 40C31.0457 40 40 31.0457 40 20C40 8.95431 31.0457 0 20 0C8.95431 0 0 8.95431 0 20C0 31.0457 8.95431 40 20 40Z" fill="#5454D4"/>
<g id="button-play">
<path id="Path" d="M26.844 19.7627L15.4597 14.0356C15.3644 13.9876 15.2475 13.9882 15.1529 14.037C15.0582 14.0859 14.9999 14.1757 15 14.2729V25.7271C14.9999 25.8243 15.0582 25.9141 15.1529 25.963C15.2475 26.0118 15.3644 26.0124 15.4597 25.9644L26.844 20.2373C26.9404 20.1888 27 20.0982 27 20C27 19.9018 26.9404 19.8112 26.844 19.7627Z" fill="white"/>
</g>
</g>
</svg>
