<svg width="32" height="32" viewBox="0 0 32 32" fill="none" xmlns="http://www.w3.org/2000/svg">
<g id="vuesax/linear/video-play">
<g id="vuesax/linear/video-play_2">
<g id="video-play">
<path id="Vector" d="M29.3333 20V12C29.3333 5.33329 26.6666 2.66663 20 2.66663H12C5.33329 2.66663 2.66663 5.33329 2.66663 12V20C2.66663 26.6666 5.33329 29.3333 12 29.3333H20C26.6666 29.3333 29.3333 26.6666 29.3333 20Z" stroke="#F04037" stroke-width="2" stroke-linecap="round" stroke-linejoin="round"/>
<path id="Vector_2" d="M3.35999 9.47998H28.64" stroke="#F04037" stroke-width="2" stroke-linecap="round" stroke-linejoin="round"/>
<path id="Vector_3" d="M11.36 2.81335V9.29335" stroke="#F04037" stroke-width="2" stroke-linecap="round" stroke-linejoin="round"/>
<path id="Vector_4" d="M20.64 2.81335V8.69335" stroke="#F04037" stroke-width="2" stroke-linecap="round" stroke-linejoin="round"/>
<path id="Vector_5" d="M13 19.2667V17.6667C13 15.6133 14.4533 14.7733 16.2267 15.8L17.6133 16.6L19 17.4C20.7733 18.4267 20.7733 20.1067 19 21.1333L17.6133 21.9333L16.2267 22.7333C14.4533 23.76 13 22.92 13 20.8667V19.2667V19.2667Z" stroke="#F04037" stroke-width="2" stroke-miterlimit="10" stroke-linecap="round" stroke-linejoin="round"/>
</g>
</g>
</g>
</svg>
